<svg xmlns="http://www.w3.org/2000/svg" viewBox="0 0 780 210" role="img" aria-labelledby="t d"><title id="t">Boudreaux's alligator mark</title><desc id="d">A long low alligator silhouette inspired by the restaurant's exterior identity.</desc><g fill="#d7d9d6"><path d="M63 124c53-7 112-29 177-34 67-5 121 12 181 10 61-2 111-30 169-33 42-2 79 9 112 34-29 0-55 7-78 21 24 7 47 18 67 35-52-9-103-4-153 15-66 25-131 34-203 25-66-9-128-31-196-25-40 3-78 13-112 30 17-31 47-53 84-66-20-4-36-14-48-32z"/><path d="M298 92c-14-29-40-50-73-59 13 30 35 52 65 64M390 93c18-29 46-48 82-54-17 29-42 49-74 59M200 159l-40 42h57l27-34M520 151l45 45h59l-54-54"/><circle cx="625" cy="88" r="7" fill="#050606"/></g></svg>
