<svg xmlns="http://www.w3.org/2000/svg" viewBox="0 0 900 700"><rect width="900" height="700" fill="#0d0f0f"/><g fill="none" stroke-linecap="round" stroke-linejoin="round"><path d="M79 176c131-55 267-72 415-36 110 26 206 23 307-10" stroke="#e9e6dd" stroke-width="13"/><path d="M120 433c142-77 285-75 418-17 80 35 154 48 257 13" stroke="#a5432d" stroke-width="28"/><path d="M220 109l38 87 72-57-18 97 91 1-73 54 49 72-91-24-22 91-37-85-79 48 27-91-94-4 78-51-45-77z" stroke="#f2b643" stroke-width="10"/><path d="M520 285c-58 2-110 19-156 51 51-10 91-5 123 14-36 8-69 25-99 51 73-22 132-19 181 11 49 30 102 40 159 30-35-16-62-37-80-64 28-2 54-11 78-26-69 1-126-18-171-56z" stroke="#d7d9d6" stroke-width="12"/><path d="M84 578h725M84 606h520" stroke="#59624b" stroke-width="14"/></g><g fill="#d7d9d6" font-family="Arial Black,Arial" font-weight="900"><text x="63" y="94" font-size="44">KEEP IT LOW. KEEP IT SOULFUL.</text><text x="82" y="672" font-size="70">NODA • CLT • BDX</text></g><g fill="#f2b643" font-family="monospace" font-weight="700"><text x="616" y="560" font-size="24">ROUX BEFORE RULES</text><text x="618" y="594" font-size="18">BRUNCH / LUNCH / DINNER</text></g></svg>
